<svg id="Layer_1" enable-background="new 0 0 512 512" height="512" viewBox="0 0 512 512" width="512" xmlns="http://www.w3.org/2000/svg"><g fill="#DDDDE4"><path d="m0 0v512h512v-512zm30 30h211v452h-211zm452 452h-211v-452h211z"/><path d="m308.125 68.857h136.75v30h-136.75z"/><path d="m308.125 137.714h136.75v30h-136.75z"/><path d="m308.125 206.571h136.75v30h-136.75z"/><path d="m308.125 275.429h136.75v30h-136.75z"/><path d="m308.125 344.286h136.75v30h-136.75z"/><path d="m308.125 413.143h136.75v30h-136.75z"/><path d="m175.807 193.512-5.667-84.481h-69.28l-5.667 84.481-24.048 25.659v183.799h128.711v-183.799zm-51.398 12.697 4.506-67.179h13.171l4.506 67.179 23.264 24.823v13.386h-68.711v-13.386zm45.446 68.209v39.613h-68.711v-39.613zm-68.71 98.552v-28.938h68.711v28.938z"/></g></svg>