<svg id="Capa_1" enable-background="new 0 0 512.001 512.001" height="512" viewBox="0 0 512.001 512.001" width="512" xmlns="http://www.w3.org/2000/svg"><g fill="#DDDDE4"><path d="m416 82.001h-25v-67c0-4.724-2.226-9.172-6.007-12.005-3.779-2.833-8.672-3.719-13.209-2.391l-280 82c-6.391 1.872-10.784 7.735-10.784 14.396v400c0 8.284 6.716 15 15 15h320c8.284 0 15-6.716 15-15v-400c0-8.285-6.716-15-15-15zm-55 0h-160.409l160.409-46.977zm40 400h-290v-370h290z"/><path d="m336 247.001h-25v-15c0-8.284-6.716-15-15-15h-140c-8.284 0-15 6.716-15 15v180c0 19.299 15.701 35 35 35h100c19.299 0 35-15.701 35-35v-35h25c19.299 0 35-15.701 35-35v-60c0-19.299-15.701-35-35-35zm-55 0v30h-110v-30zm0 165c0 2.757-2.243 5-5 5h-100c-2.757 0-5-2.243-5-5v-105h110zm60-70c0 2.757-2.243 5-5 5h-25v-70h25c2.757 0 5 2.243 5 5z"/><path d="m186 177.001h140c8.284 0 15-6.716 15-15s-6.716-15-15-15h-140c-8.284 0-15 6.716-15 15s6.716 15 15 15z"/></g></svg>